<?xml version="1.0" encoding="utf-8"?><!-- Uploaded to: SVG Repo, www.svgrepo.com, Generator: SVG Repo Mixer Tools -->
<svg version="1.1" id="Uploaded to svgrepo.com" xmlns="http://www.w3.org/2000/svg" xmlns:xlink="http://www.w3.org/1999/xlink" 
	 width="800px" height="800px" viewBox="0 0 32 32" xml:space="preserve">
<style type="text/css">
	.stone_een{fill:#FFF;}
</style>
<path class="stone_een" d="M5,17v-2c0-1.657,1.343-3,3-3h1l0.432-1.727C9.766,8.937,10.966,8,12.342,8h3.315
	c1.377,0,2.577,0.937,2.91,2.272L19,12h5c1.657,0,3,1.343,3,3v2H5z M29,8H18.287c0.596,0.523,1.047,1.216,1.251,2.03L19.781,11H29
	c0.551,0,1-0.448,1-1V9C30,8.448,29.551,8,29,8z M30,21v2c0,1.657-1.343,3-3,3H5c-1.657,0-3-1.343-3-3v-2c0-1.657,1.343-3,3-3h22
	C28.657,18,30,19.343,30,21z M7,22c0-0.552-0.448-1-1-1s-1,0.448-1,1c0,0.552,0.448,1,1,1S7,22.552,7,22z M11,22
	c0-0.552-0.448-1-1-1s-1,0.448-1,1c0,0.552,0.448,1,1,1S11,22.552,11,22z M15,22c0-0.552-0.448-1-1-1s-1,0.448-1,1
	c0,0.552,0.448,1,1,1S15,22.552,15,22z M19,22c0-0.552-0.448-1-1-1s-1,0.448-1,1c0,0.552,0.448,1,1,1S19,22.552,19,22z M23,22
	c0-0.552-0.448-1-1-1s-1,0.448-1,1c0,0.552,0.448,1,1,1S23,22.552,23,22z M27,22c0-0.552-0.448-1-1-1s-1,0.448-1,1
	c0,0.552,0.448,1,1,1S27,22.552,27,22z"/>
</svg>
